<mxfile host="app.diagrams.net" modified="2023-05-29T06:50:56.520Z" agent="Mozilla/5.0 (Windows NT 10.0; Win64; x64) AppleWebKit/537.36 (KHTML, like Gecko) Chrome/113.0.0.0 Safari/537.36" version="21.3.5" etag="oWzs1mWupXWNPNUzF1EZ" type="github">
  <diagram name="第 1 页" id="WkZmVu41Ax8hpB3gO74V">
    <mxGraphModel>
      <root>
        <mxCell id="0" />
        <mxCell id="1" parent="0" />
      </root>
    </mxGraphModel>
  </diagram>
</mxfile>
